<svg width="211" height="73" viewBox="0 0 211 73" fill="none" xmlns="http://www.w3.org/2000/svg">
<path d="M45.7727 32.3182H34.4091C34.2576 31.1515 33.947 30.0985 33.4773 29.1591C33.0076 28.2197 32.3864 27.4167 31.6136 26.75C30.8409 26.0833 29.9242 25.5758 28.8636 25.2273C27.8182 24.8636 26.6591 24.6818 25.3864 24.6818C23.1288 24.6818 21.1818 25.2348 19.5455 26.3409C17.9242 27.447 16.6742 29.0455 15.7955 31.1364C14.9318 33.2273 14.5 35.7576 14.5 38.7273C14.5 41.8182 14.9394 44.4091 15.8182 46.5C16.7121 48.5758 17.9621 50.1439 19.5682 51.2045C21.1894 52.25 23.1061 52.7727 25.3182 52.7727C26.5606 52.7727 27.6894 52.6136 28.7045 52.2955C29.7348 51.9773 30.6364 51.5152 31.4091 50.9091C32.197 50.2879 32.8409 49.5379 33.3409 48.6591C33.8561 47.7652 34.2121 46.7576 34.4091 45.6364L45.7727 45.7045C45.5758 47.7652 44.9773 49.7955 43.9773 51.7955C42.9924 53.7955 41.6364 55.6212 39.9091 57.2727C38.1818 58.9091 36.0758 60.2121 33.5909 61.1818C31.1212 62.1515 28.2879 62.6364 25.0909 62.6364C20.8788 62.6364 17.1061 61.7121 13.7727 59.8636C10.4545 58 7.83333 55.2879 5.90909 51.7273C3.98485 48.1667 3.02273 43.8333 3.02273 38.7273C3.02273 33.6061 4 29.2652 5.95455 25.7045C7.90909 22.1439 10.553 19.4394 13.8864 17.5909C17.2197 15.7424 20.9545 14.8182 25.0909 14.8182C27.9091 14.8182 30.5152 15.2121 32.9091 16C35.303 16.7727 37.4091 17.9091 39.2273 19.4091C41.0455 20.8939 42.5227 22.7197 43.6591 24.8864C44.7955 27.053 45.5 29.5303 45.7727 32.3182ZM52.2102 62V27.0909H63.0057V33.4545H63.3693C64.0057 31.1515 65.0436 29.4394 66.483 28.3182C67.9223 27.1818 69.5966 26.6136 71.5057 26.6136C72.0208 26.6136 72.5511 26.6515 73.0966 26.7273C73.642 26.7879 74.1496 26.8864 74.6193 27.0227V36.6818C74.089 36.5 73.392 36.3561 72.5284 36.25C71.6799 36.1439 70.9223 36.0909 70.2557 36.0909C68.9375 36.0909 67.7481 36.3864 66.6875 36.9773C65.642 37.553 64.8163 38.3636 64.2102 39.4091C63.6193 40.4394 63.3239 41.6515 63.3239 43.0455V62H52.2102ZM87.6761 62.5909C85.4489 62.5909 83.4716 62.2197 81.7443 61.4773C80.0322 60.7197 78.6761 59.5833 77.6761 58.0682C76.6913 56.5379 76.1989 54.6212 76.1989 52.3182C76.1989 50.3788 76.5398 48.7424 77.2216 47.4091C77.9034 46.0758 78.8428 44.9924 80.0398 44.1591C81.2367 43.3258 82.6155 42.697 84.1761 42.2727C85.7367 41.8333 87.4034 41.5379 89.1761 41.3864C91.161 41.2045 92.7595 41.0152 93.9716 40.8182C95.1837 40.6061 96.0625 40.3106 96.608 39.9318C97.1686 39.5379 97.4489 38.9848 97.4489 38.2727V38.1591C97.4489 36.9924 97.0473 36.0909 96.2443 35.4545C95.4413 34.8182 94.358 34.5 92.9943 34.5C91.5246 34.5 90.3428 34.8182 89.4489 35.4545C88.5549 36.0909 87.9867 36.9697 87.7443 38.0909L77.4943 37.7273C77.7973 35.6061 78.5777 33.7121 79.8352 32.0455C81.108 30.3636 82.8504 29.0455 85.0625 28.0909C87.2898 27.1212 89.964 26.6364 93.0852 26.6364C95.3125 26.6364 97.3655 26.9015 99.2443 27.4318C101.123 27.947 102.759 28.7045 104.153 29.7045C105.547 30.6894 106.623 31.9015 107.381 33.3409C108.153 34.7803 108.54 36.4242 108.54 38.2727V62H98.0852V57.1364H97.8125C97.1913 58.3182 96.3958 59.3182 95.4261 60.1364C94.4716 60.9545 93.3428 61.5682 92.0398 61.9773C90.7519 62.3864 89.2973 62.5909 87.6761 62.5909ZM91.108 55.3182C92.3049 55.3182 93.3807 55.0758 94.3352 54.5909C95.3049 54.1061 96.0777 53.4394 96.6534 52.5909C97.2292 51.7273 97.517 50.7273 97.517 49.5909V46.2727C97.1989 46.4394 96.8125 46.5909 96.358 46.7273C95.9186 46.8636 95.4337 46.9924 94.9034 47.1136C94.3731 47.2348 93.8277 47.3409 93.267 47.4318C92.7064 47.5227 92.1686 47.6061 91.6534 47.6818C90.608 47.8485 89.714 48.1061 88.9716 48.4545C88.2443 48.803 87.6837 49.2576 87.2898 49.8182C86.911 50.3636 86.7216 51.0152 86.7216 51.7727C86.7216 52.9242 87.1307 53.803 87.9489 54.4091C88.7822 55.0152 89.8352 55.3182 91.108 55.3182ZM147.949 27.0909L135.972 62H123.244L111.29 27.0909H122.994L129.426 51.1364H129.79L136.244 27.0909H147.949ZM152.21 62V27.0909H163.324V62H152.21ZM157.778 23.0227C156.218 23.0227 154.877 22.5076 153.756 21.4773C152.634 20.4318 152.074 19.1742 152.074 17.7045C152.074 16.25 152.634 15.0076 153.756 13.9773C154.877 12.9318 156.218 12.4091 157.778 12.4091C159.354 12.4091 160.695 12.9318 161.801 13.9773C162.922 15.0076 163.483 16.25 163.483 17.7045C163.483 19.1742 162.922 20.4318 161.801 21.4773C160.695 22.5076 159.354 23.0227 157.778 23.0227ZM186.693 62.6591C183.027 62.6591 179.875 61.9091 177.239 60.4091C174.617 58.8939 172.595 56.7879 171.17 54.0909C169.761 51.3788 169.057 48.2348 169.057 44.6591C169.057 41.0682 169.761 37.9242 171.17 35.2273C172.595 32.5152 174.617 30.4091 177.239 28.9091C179.875 27.3939 183.027 26.6364 186.693 26.6364C190.36 26.6364 193.504 27.3939 196.125 28.9091C198.761 30.4091 200.784 32.5152 202.193 35.2273C203.617 37.9242 204.33 41.0682 204.33 44.6591C204.33 48.2348 203.617 51.3788 202.193 54.0909C200.784 56.7879 198.761 58.8939 196.125 60.4091C193.504 61.9091 190.36 62.6591 186.693 62.6591ZM186.761 54.2727C188.095 54.2727 189.223 53.8636 190.148 53.0455C191.072 52.2273 191.777 51.0909 192.261 49.6364C192.761 48.1818 193.011 46.5 193.011 44.5909C193.011 42.6515 192.761 40.9545 192.261 39.5C191.777 38.0455 191.072 36.9091 190.148 36.0909C189.223 35.2727 188.095 34.8636 186.761 34.8636C185.383 34.8636 184.216 35.2727 183.261 36.0909C182.322 36.9091 181.602 38.0455 181.102 39.5C180.617 40.9545 180.375 42.6515 180.375 44.5909C180.375 46.5 180.617 48.1818 181.102 49.6364C181.602 51.0909 182.322 52.2273 183.261 53.0455C184.216 53.8636 185.383 54.2727 186.761 54.2727Z" fill="url(#paint0_linear_2_7)"/>
<defs>
<linearGradient id="paint0_linear_2_7" x1="-2.06196e-08" y1="36.8557" x2="211" y2="36" gradientUnits="userSpaceOnUse">
<stop offset="0.0817308" stop-color="#C2A27A"/>
<stop offset="0.447115" stop-color="#C2A27A"/>
<stop offset="1" stop-color="#E6D3A0"/>
</linearGradient>
</defs>
</svg>
